HIERARCHY
ROOT root
{
	OFFSET 0.000000 0.000000 0.000000
	CHANNELS 6 Xposition Yposition Zposition Zrotation Yrotation Xrotation
	JOINT lhip
	{
		OFFSET 0.058581 -0.082280 -0.017664
		CHANNELS 3 Zrotation Yrotation Xrotation
		JOINT lknee
		{
			OFFSET 0.043451 -0.386469 0.008037
			CHANNELS 3 Zrotation Yrotation Xrotation
			JOINT lankle
			{
				OFFSET -0.014790 -0.426874 -0.037428
				CHANNELS 3 Zrotation Yrotation Xrotation
				JOINT ltoe
				{
					OFFSET 0.041054 -0.060286 0.122042
					CHANNELS 3 Zrotation Yrotation Xrotation
					End Site
					{
						OFFSET 0.000000 0.000000 0.000000
					}
				}
			}
		}
	}
	JOINT rhip
	{
		OFFSET -0.060310 -0.090513 -0.013543
		CHANNELS 3 Zrotation Yrotation Xrotation
		JOINT rknee
		{
			OFFSET -0.043257 -0.383688 -0.004843
			CHANNELS 3 Zrotation Yrotation Xrotation
			JOINT rankle
			{
				OFFSET 0.019056 -0.420046 -0.034562
				CHANNELS 3 Zrotation Yrotation Xrotation
				JOINT rtoe
				{
					OFFSET -0.034840 -0.062106 0.130323
					CHANNELS 3 Zrotation Yrotation Xrotation
					End Site
					{
						OFFSET 0.000000 0.000000 0.000000
					}
				}
			}
		}
	}
	JOINT lowerback
	{
		OFFSET 0.004439 0.124404 -0.038385
		CHANNELS 3 Zrotation Yrotation Xrotation
		JOINT upperback
		{
			OFFSET 0.004488 0.137956 0.026820
			CHANNELS 3 Zrotation Yrotation Xrotation
			JOINT chest
			{
				OFFSET -0.002265 0.056032 0.002855
				CHANNELS 3 Zrotation Yrotation Xrotation
				JOINT lowerneck
				{
					OFFSET -0.013390 0.211636 -0.033468
					CHANNELS 3 Zrotation Yrotation Xrotation
					JOINT upperneck
					{
						OFFSET 0.010113 0.088937 0.050410
						CHANNELS 3 Zrotation Yrotation Xrotation
						End Site
						{
							OFFSET 0.000000 0.000000 0.000000
						}
					}
				}
				JOINT lclavicle
				{
					OFFSET 0.071702 0.114000 -0.018898
					CHANNELS 3 Zrotation Yrotation Xrotation
					JOINT lshoulder
					{
						OFFSET 0.122921 0.045205 -0.019046
						CHANNELS 3 Zrotation Yrotation Xrotation
						JOINT lelbow
						{
							OFFSET 0.255332 -0.015649 -0.022946
							CHANNELS 3 Zrotation Yrotation Xrotation
							JOINT lwrist
							{
								OFFSET 0.265709 0.012698 -0.007375
								CHANNELS 3 Zrotation Yrotation Xrotation
								End Site
								{
									OFFSET 0.000000 0.000000 0.000000
								}
							}
						}
					}
				}
				JOINT rclavicle
				{
					OFFSET -0.082954 0.112472 -0.023707
					CHANNELS 3 Zrotation Yrotation Xrotation
					JOINT rshoulder
					{
						OFFSET -0.113228 0.046853 -0.008472
						CHANNELS 3 Zrotation Yrotation Xrotation
						JOINT relbow
						{
							OFFSET -0.260127 -0.014369 -0.031269
							CHANNELS 3 Zrotation Yrotation Xrotation
							JOINT rwrist
							{
								OFFSET -0.269108 0.006794 -0.006027
								CHANNELS 3 Zrotation Yrotation Xrotation
								End Site
								{
									OFFSET 0.000000 0.000000 0.000000
								}
							}
						}
					}
				}
			}
		}
	}
}
MOTION
Frames: 7
Frame Time: 0.033333
-0.347267 1.608495 1.008701 -124.470132 -0.892140 94.987260 4.854284 5.656208 12.166303 -0.478257 -14.316126 12.422561 -11.709687 9.541463 8.691238 0.000000 -0.000000 0.000000 2.183067 -2.221570 -13.791756 -0.300803 -2.894457 8.745013 5.919172 -9.184049 -4.363173 0.000000 -0.000000 0.000000 1.849695 -5.239277 12.248804 0.891157 -5.598964 -6.695090 3.245634 -3.626854 4.393110 -2.110539 1.244742 1.715705 1.384846 -0.369178 -7.155647 33.450376 -14.000313 -26.677046 -12.093652 -43.858821 -10.420926 38.192989 -47.259978 -18.911327 44.887724 -25.955720 -17.986967 -33.452123 15.081188 -32.559433 -3.346933 60.441298 -27.090689 -12.238099 25.847344 -3.023982 -14.216543 3.333451 16.778080 
-0.347409 1.608016 1.009862 -124.260883 -0.825438 95.603547 5.161098 5.875670 12.293580 -0.358352 -14.622658 10.869578 -12.182173 9.455833 8.710051 0.000000 -0.000000 0.000000 2.437310 -2.157411 -14.035397 -0.435067 -2.107598 7.786504 6.160885 -10.167338 -3.958279 0.000000 -0.000000 0.000000 1.913769 -5.743224 12.418890 0.637023 -5.625992 -6.750679 3.431194 -3.498742 3.866083 -2.132247 1.198880 -2.370280 1.942971 0.476993 -8.081215 32.092429 -13.567787 -27.597510 -9.987048 -44.530970 -10.950098 34.982305 -48.133135 -16.890812 44.891352 -25.729088 -17.082508 -32.815000 15.760109 -32.786833 -5.295907 59.959918 -27.418848 -10.304840 26.195910 -2.775091 -13.803385 2.821366 19.875830 
-0.348624 1.607526 1.010881 -123.765672 -0.895230 96.116264 5.298017 5.816718 12.460920 -0.239434 -14.382026 9.356051 -12.226853 9.215576 8.823183 0.000000 -0.000000 0.000000 2.106504 -2.318346 -14.204986 -0.177726 -2.648738 7.005566 6.469526 -10.214341 -3.813441 0.000000 -0.000000 0.000000 2.236461 -6.032861 12.523838 0.306627 -5.574799 -7.518494 3.332244 -3.523627 3.322168 -1.787197 1.355950 -5.494536 2.343631 0.353338 -8.259087 30.310124 -13.665752 -28.902228 -8.415129 -46.379757 -10.737132 30.147493 -47.586802 -13.588105 44.665780 -26.484925 -16.291773 -32.237931 16.534934 -32.514444 -6.121577 59.321497 -27.026781 -9.643974 25.297020 -4.570265 -15.251857 3.799923 20.181305 
-0.349856 1.606582 1.011913 -123.308030 -0.743315 96.213051 5.389845 5.923237 12.541148 0.162958 -14.032949 8.588875 -12.140955 9.229414 8.899232 0.000000 -0.000000 0.000000 2.212701 -2.476052 -13.860101 -0.127316 -2.615738 5.881107 6.259653 -10.742245 -3.548119 0.000000 -0.000000 0.000000 2.786353 -6.358379 12.510844 0.130674 -5.646972 -7.784475 3.473848 -3.560572 2.123906 -1.913873 -0.682432 -5.932197 2.688359 0.772958 -8.803986 28.650269 -14.762544 -29.420408 -6.789093 -46.776503 -11.168852 25.502100 -47.975306 -10.300958 42.489089 -25.808640 -16.705646 -32.487810 18.414067 -31.975971 -6.850860 58.026516 -27.191522 -9.184520 24.075829 -6.391098 -15.797174 4.515532 21.050818 
-0.350978 1.605555 1.012673 -123.389902 -0.516003 95.751977 5.647234 6.454895 13.282945 0.433492 -13.758721 7.946571 -12.220267 8.984044 8.799733 0.000000 -0.000000 0.000000 2.354768 -2.747416 -13.197446 0.013676 -2.371608 5.297176 5.976889 -10.907925 -3.533595 0.000000 -0.000000 0.000000 3.066863 -6.402335 12.172813 -0.113499 -5.450401 -7.229830 3.491344 -3.316674 1.935376 -1.845085 -1.472426 -7.991554 3.044867 0.517531 -8.930789 27.651088 -15.002602 -30.128396 -5.897551 -48.206992 -11.384740 21.494909 -46.906736 -7.933863 43.393443 -26.443638 -16.241775 -32.620422 19.559753 -31.999668 -7.282718 56.861087 -27.291368 -8.473799 23.207854 -7.541601 -16.279132 5.452664 22.432482 
-0.350967 1.604716 1.012746 -123.543863 -0.337344 95.500813 5.872121 6.267912 13.629992 0.656091 -11.958079 7.508835 -12.684688 7.900234 9.253275 0.000000 -0.000000 0.000000 2.525223 -2.278888 -12.989785 -0.238138 -3.160173 5.103791 5.961637 -10.358628 -3.400589 0.000000 -0.000000 0.000000 3.027775 -6.460927 11.560171 -0.412537 -5.030320 -6.738160 3.356110 -2.978107 1.640504 -1.145674 -1.326622 -9.298594 2.917445 0.224624 -8.647686 25.379933 -15.107287 -30.528560 -5.178388 -52.634708 -12.114795 19.391608 -43.529388 -9.798793 38.894057 -30.494285 -12.264845 -31.391480 20.621477 -30.791168 -9.630463 56.405529 -28.876364 -8.089891 21.609888 -9.979172 -16.290037 7.045323 24.439592 
-0.351207 1.603179 1.013418 -123.595226 -0.129429 95.027033 6.343791 6.803587 13.765431 0.419377 -12.535888 7.991718 -12.865341 8.060816 9.133299 0.000000 -0.000000 0.000000 2.713687 -2.546926 -12.672513 -0.167921 -2.565384 5.168884 5.647049 -10.548746 -3.521073 0.000000 -0.000000 0.000000 2.944982 -6.553457 11.382702 -0.255656 -5.405628 -6.289648 3.385455 -2.557407 1.029663 -1.370174 -1.466085 -9.446357 3.392219 0.115514 -8.450101 25.844260 -16.448684 -30.861375 -5.614018 -51.213650 -11.289423 17.402410 -43.700289 -6.853194 40.863059 -29.136456 -13.577310 -31.282278 22.378068 -30.673411 -8.887269 55.497497 -28.629155 -7.923976 20.989313 -9.428029 -16.576861 7.186237 24.165339 
